<svg width="17" height="14" viewBox="0 0 17 14" fill="none" xmlns="http://www.w3.org/2000/svg">
<path d="M8.875 9.8125L10.2812 11.2188C10.6562 11.625 11.3125 11.625 11.6875 11.2188L13.125 9.8125C13.5 9.40625 13.5 8.78125 13.125 8.40625L11.6875 6.96875C11.3125 6.59375 10.6562 6.59375 10.2812 6.96875L8.875 8.40625C8.46875 8.78125 8.46875 9.40625 8.875 9.8125ZM16 0H2C1.375 0 0.90625 0.5625 1 1.15625L2.75 12.2812C2.875 13.2812 3.71875 14 4.71875 14H13.25C14.25 14 15.0938 13.2812 15.25 12.2812L16.9688 1.15625C17.0625 0.5625 16.5938 0 16 0ZM13.9062 7.8125C14.2188 8.15625 14.4062 8.625 14.4062 9.09375C14.4062 9.625 14.1875 10.125 13.8125 10.5312L12.4062 11.9375C12.0312 12.3125 11.5312 12.5 11 12.5C10.4375 12.5 9.9375 12.3125 9.5625 11.9375L8.15625 10.5H6C4.875 10.5 4 9.625 4 8.5V7.3125L3.15625 2H14.8125L13.9062 7.8125ZM6 9.5H7.625C7.59375 9.375 7.5625 9.25 7.5625 9.09375C7.5625 8.5625 7.78125 8.0625 8.15625 7.6875L9 6.84375V6.5C9 5.96875 8.53125 5.5 8 5.5H6C5.4375 5.5 5 5.96875 5 6.5V8.5C5 9.0625 5.4375 9.5 6 9.5Z" fill="black"/>
</svg>
